<?xml version="1.0" encoding="UTF-8" standalone="no"?>
<!-- Created with Inkscape (http://www.inkscape.org/) -->

<svg
   version="1.1"
   id="svg2"
   xml:space="preserve"
   width="400"
   height="400"
   viewBox="0 0 400 400"
   sodipodi:docname="favicon.ai"
   xmlns:inkscape="http://www.inkscape.org/namespaces/inkscape"
   xmlns:sodipodi="http://sodipodi.sourceforge.net/DTD/sodipodi-0.dtd"
   xmlns="http://www.w3.org/2000/svg"
   xmlns:svg="http://www.w3.org/2000/svg"><defs
     id="defs6"><linearGradient
       x1="0"
       y1="0"
       x2="1"
       y2="0"
       gradientUnits="userSpaceOnUse"
       gradientTransform="matrix(0,289.49698,289.49698,0,124.87283,10.503021)"
       spreadMethod="pad"
       id="linearGradient28"><stop
         style="stop-opacity:1;stop-color:#4f0699"
         offset="0"
         id="stop22" /><stop
         style="stop-opacity:1;stop-color:#ff3b35"
         offset="0.999999"
         id="stop24" /><stop
         style="stop-opacity:1;stop-color:#ff3b35"
         offset="1"
         id="stop26" /></linearGradient><clipPath
       clipPathUnits="userSpaceOnUse"
       id="clipPath38"><path
         d="M 0,300 H 300 V 0 H 0 Z"
         id="path36" /></clipPath></defs><sodipodi:namedview
     id="namedview4"
     pagecolor="#ffffff"
     bordercolor="#666666"
     borderopacity="1.0"
     inkscape:pageshadow="2"
     inkscape:pageopacity="0.0"
     inkscape:pagecheckerboard="0" /><g
     id="g8"
     inkscape:groupmode="layer"
     inkscape:label="favicon"
     transform="matrix(1.3333333,0,0,-1.3333333,0,400)"><g
       id="g10"><g
         id="g12"><g
           id="g18"><g
             id="g20"><path
               d="M 0,300 V 10.503 l 249.746,144.749 z"
               style="fill:url(#linearGradient28);stroke:none"
               id="path30" /></g></g></g></g><g
       id="g32"><g
         id="g34"
         clip-path="url(#clipPath38)"><g
           id="g40"
           transform="translate(24.3124,68.8789)"><path
             d="m 0,0 c -4.519,0 -8.304,1.645 -11.251,4.889 -2.883,3.172 -4.345,7.807 -4.345,13.776 v 102.563 c 0,5.968 1.447,10.587 4.3,13.73 2.918,3.216 6.718,4.846 11.296,4.846 4.682,0 8.55,-1.608 11.497,-4.779 2.897,-3.12 4.364,-7.761 4.364,-13.797 V 18.665 C 15.861,12.634 14.396,7.98 11.507,4.835 8.56,1.626 4.688,0 0,0"
             style="fill:#ffffff;fill-opacity:1;fill-rule:nonzero;stroke:none"
             id="path42" /></g><g
           id="g44"
           transform="translate(79.5976,68.8789)"><path
             d="m 0,0 c -4.631,0 -8.473,1.626 -11.419,4.835 -2.889,3.144 -4.353,7.797 -4.353,13.83 V 118.83 c 0,4.155 0.647,7.647 1.924,10.378 1.38,2.956 3.577,5.142 6.531,6.497 2.72,1.247 6.164,1.879 10.236,1.879 h 61.92 c 4.836,0 8.565,-1.17 11.084,-3.478 2.583,-2.367 3.892,-5.476 3.892,-9.238 0,-3.821 -1.309,-6.959 -3.892,-9.326 -2.519,-2.308 -6.248,-3.478 -11.084,-3.478 H 15.685 V 83.95 h 40.662 c 4.658,0 8.267,-1.139 10.727,-3.387 2.527,-2.311 3.807,-5.39 3.807,-9.151 0,-3.778 -1.305,-6.851 -3.88,-9.134 -2.485,-2.2 -6.069,-3.316 -10.654,-3.316 H 15.685 V 18.665 C 15.685,12.568 14.216,7.897 11.321,4.78 8.373,1.608 4.564,0 0,0"
             style="fill:#ffffff;fill-opacity:1;fill-rule:nonzero;stroke:none"
             id="path46" /></g><g
           id="g48"
           transform="translate(169.0668,37.4019)"><path
             d="m 0,0 h -0.215 c -10.559,0 -19.118,8.56 -19.118,19.118 v 0.364 c 0,10.559 8.559,19.118 19.118,19.118 L 0,38.6 c 10.559,0 19.118,-8.559 19.118,-19.118 V 19.118 C 19.118,8.56 10.559,0 0,0"
             style="fill:#ffffff;fill-opacity:1;fill-rule:nonzero;stroke:none"
             id="path50" /></g><g
           id="g52"
           transform="translate(252.5668,26.0381)"><path
             d="m 0,0 h -0.215 c -10.558,0 -19.118,8.559 -19.118,19.118 v 0.364 c 0,10.558 8.56,19.118 19.118,19.118 L 0,38.6 c 10.559,0 19.118,-8.56 19.118,-19.118 V 19.118 C 19.118,8.559 10.559,0 0,0"
             style="fill:#ffffff;fill-opacity:1;fill-rule:nonzero;stroke:none"
             id="path54" /></g><g
           id="g56"
           transform="translate(166.7446,65.8755)"><path
             d="m 0,0 c -2.099,0 -3.89,-0.507 -5.477,-1.55 -1.614,-1.06 -2.862,-2.61 -3.815,-4.738 -1.08,-2.406 -1.626,-5.333 -1.626,-8.7 0,-3.544 0.564,-6.504 1.677,-8.799 1,-2.062 2.268,-3.533 3.876,-4.498 1.688,-1.014 3.486,-1.507 5.5,-1.507 2.103,0 3.947,0.473 5.638,1.445 1.564,0.899 2.822,2.327 3.845,4.364 1.131,2.253 1.705,5.279 1.705,8.995 0,3.441 -0.579,6.353 -1.72,8.656 C 8.541,-4.189 7.197,-2.63 5.497,-1.565 3.813,-0.513 2.015,0 0,0 m 84.31,0 c -2.271,0 -4.2,-0.524 -5.898,-1.604 -1.71,-1.086 -3.051,-2.684 -4.099,-4.884 -1.148,-2.408 -1.73,-5.433 -1.73,-8.992 0,-4.959 1.103,-8.656 3.28,-10.987 2.116,-2.269 4.8,-3.325 8.447,-3.325 2.788,0 5.07,1.079 7.183,3.394 2.21,2.421 3.33,6.26 3.33,11.41 0,3.511 -0.522,6.49 -1.551,8.854 -0.903,2.072 -2.093,3.591 -3.639,4.642 C 88.158,-0.488 86.416,0 84.31,0 m 4.653,-55.738 c -3.341,0 -6.552,0.374 -9.544,1.112 -3.073,0.758 -5.78,1.801 -8.046,3.101 -0.952,0.545 -1.851,1.106 -2.694,1.681 -0.43,-0.575 -0.907,-1.117 -1.429,-1.625 -2.869,-2.793 -6.625,-4.269 -10.862,-4.269 -4.37,0 -8.146,1.532 -10.921,4.43 -1.633,1.704 -2.786,3.787 -3.451,6.224 -0.696,-2.52 -1.923,-4.655 -3.67,-6.382 -2.827,-2.794 -6.572,-4.272 -10.829,-4.272 -4.243,0 -7.995,1.529 -10.85,4.42 -0.529,0.535 -1.011,1.105 -1.443,1.709 -0.035,-0.024 -0.07,-0.047 -0.104,-0.07 -2.937,-1.979 -6.163,-3.502 -9.588,-4.526 -3.399,-1.016 -7.121,-1.533 -11.062,-1.533 -5.316,0 -10.335,1.054 -14.918,3.133 -4.593,2.08 -8.618,5.089 -11.964,8.944 -3.293,3.789 -5.816,8.279 -7.496,13.343 -1.628,4.903 -2.454,10.247 -2.454,15.883 0,12.179 3.442,21.947 10.232,29.032 6.864,7.163 15.904,10.795 26.869,10.795 6.215,0 11.636,-1.035 16.112,-3.076 0.496,-0.226 0.99,-0.466 1.483,-0.72 v 15.852 c 0,5.016 1.283,9.061 3.813,12.023 1.916,2.244 5.445,4.918 11.37,4.918 5.788,0 9.277,-2.445 11.187,-4.496 1.61,-1.734 2.739,-3.852 3.377,-6.33 0.631,2.316 1.666,4.312 3.096,5.968 1.916,2.216 5.416,4.858 11.211,4.858 5.861,0 9.385,-2.492 11.311,-4.583 2.659,-2.89 4.007,-6.758 4.007,-11.497 v -16.83 c 0.425,0.226 0.852,0.442 1.279,0.649 4.47,2.166 9.913,3.264 16.181,3.264 7.233,0 13.73,-1.625 19.313,-4.829 5.703,-3.274 10.171,-8.052 13.28,-14.201 2.992,-5.917 4.509,-12.914 4.509,-20.797 0,-5.76 -0.827,-11.159 -2.457,-16.046 -1.681,-5.037 -4.178,-9.489 -7.42,-13.235 -3.315,-3.831 -7.384,-6.83 -12.091,-8.913 -4.657,-2.062 -9.817,-3.109 -15.337,-3.109"
             style="fill:#1d09c4;fill-opacity:1;fill-rule:nonzero;stroke:none"
             id="path58" /></g><g
           id="g60"
           transform="translate(166.8798,42.5664)"><path
             d="m 0,0 c -0.838,0 -1.483,0.173 -2.158,0.578 -0.188,0.113 -0.741,0.445 -1.385,1.773 -0.672,1.386 -1.028,3.451 -1.028,5.97 0,2.448 0.356,4.482 1.057,6.046 0.645,1.438 1.259,1.842 1.461,1.975 0.383,0.251 0.881,0.485 1.918,0.485 0.805,0 1.403,-0.169 2.062,-0.581 C 2.339,15.988 2.974,15.48 3.661,14.095 4.353,12.698 4.705,10.754 4.705,8.321 4.705,4.785 4.069,2.99 3.689,2.234 3.395,1.648 2.933,0.884 2.406,0.581 1.936,0.312 1.236,0 0,0 m 84.175,0 c -2.528,0 -3.265,0.791 -3.706,1.263 -0.98,1.049 -1.539,3.441 -1.539,6.566 0,2.586 0.369,4.672 1.098,6.202 0.679,1.424 1.31,1.94 1.726,2.204 0.434,0.275 1.1,0.592 2.421,0.592 1.134,0 1.516,-0.261 1.68,-0.371 0.182,-0.124 0.745,-0.507 1.34,-1.873 0.66,-1.517 1.011,-3.684 1.011,-6.262 C 88.206,4.986 87.609,2.42 86.569,1.28 85.401,0 84.777,0 84.175,0 M 56.253,84.18 c -5.503,0 -10.485,-1.844 -14.288,-5.243 -2.957,2.633 -7.638,5.243 -14.583,5.243 -6.551,0 -12.34,-2.554 -16.3,-7.19 C 7.522,72.822 5.717,67.36 5.717,60.757 v -6.706 c -3.43,0.753 -7.144,1.132 -11.113,1.132 -12.62,0 -23.53,-4.423 -31.549,-12.791 -7.986,-8.334 -12.035,-19.61 -12.035,-33.517 0,-6.332 0.937,-12.363 2.785,-17.929 1.952,-5.879 4.898,-11.113 8.757,-15.552 3.958,-4.56 8.73,-8.126 14.182,-10.596 5.425,-2.46 11.345,-3.708 17.59,-3.708 4.571,0 8.918,0.607 12.922,1.805 2.335,0.698 4.594,1.592 6.755,2.675 3.76,-2.94 8.331,-4.48 13.371,-4.48 5.553,0 10.524,1.819 14.458,5.277 3.872,-3.458 8.821,-5.277 14.413,-5.277 4.972,0 9.497,1.469 13.243,4.273 2.44,-1.227 5.205,-2.226 8.237,-2.973 3.497,-0.864 7.231,-1.3 11.095,-1.3 6.429,0 12.472,1.232 17.962,3.663 5.587,2.472 10.422,6.039 14.369,10.6 3.799,4.388 6.715,9.578 8.665,15.422 1.852,5.551 2.791,11.641 2.791,18.1 0,8.907 -1.751,16.887 -5.205,23.72 -3.692,7.301 -9.021,12.985 -15.84,16.899 -6.577,3.776 -14.16,5.689 -22.539,5.689 -3.92,0 -7.589,-0.384 -10.978,-1.146 v 7.581 c 0,7.992 -3.109,13.049 -5.717,15.884 -2.807,3.048 -7.872,6.678 -16.083,6.678 M 0,-12.965 c 3.237,0 6.193,0.769 8.869,2.307 2.674,1.538 4.81,3.895 6.407,7.075 1.596,3.178 2.394,7.146 2.394,11.904 0,4.47 -0.798,8.315 -2.394,11.535 -1.597,3.219 -3.755,5.68 -6.475,7.382 -2.72,1.702 -5.699,2.554 -8.936,2.554 -3.372,0 -6.386,-0.873 -9.037,-2.615 -2.654,-1.744 -4.711,-4.245 -6.172,-7.506 -1.462,-3.26 -2.192,-7.044 -2.192,-11.35 0,-4.552 0.776,-8.428 2.327,-11.627 1.551,-3.199 3.676,-5.61 6.374,-7.229 2.697,-1.621 5.642,-2.43 8.835,-2.43 m 27.382,84.18 c 2.787,0 4.934,-0.81 6.441,-2.429 1.506,-1.621 2.26,-4.01 2.26,-7.168 v -77.967 c 0,-3.198 -0.81,-5.598 -2.429,-7.197 -1.618,-1.6 -3.709,-2.4 -6.272,-2.4 -2.518,0 -4.598,0.831 -6.238,2.492 -1.642,1.661 -2.462,4.03 -2.462,7.105 v 1.661 c -2.474,-2.583 -4.913,-4.686 -7.318,-6.305 -2.406,-1.621 -5.014,-2.852 -7.823,-3.692 -2.811,-0.84 -5.88,-1.261 -9.207,-1.261 -4.406,0 -8.487,0.851 -12.241,2.553 -3.755,1.702 -7.003,4.132 -9.745,7.29 -2.744,3.158 -4.823,6.869 -6.239,11.136 -1.416,4.264 -2.124,8.879 -2.124,13.842 0,10.499 2.809,18.681 8.43,24.546 5.62,5.865 13.017,8.797 22.189,8.797 5.305,0 9.78,-0.83 13.421,-2.491 3.642,-1.661 7.194,-4.214 10.657,-7.659 v 28.689 c 0,3.445 0.753,6.049 2.259,7.813 1.506,1.763 3.653,2.645 6.441,2.645 m 56.793,-84.18 c 4.63,0 8.62,1.835 11.971,5.506 3.349,3.67 5.024,8.93 5.024,15.78 0,4.429 -0.697,8.243 -2.09,11.443 -1.394,3.199 -3.372,5.669 -5.935,7.413 -2.563,1.742 -5.554,2.615 -8.97,2.615 -3.508,0 -6.633,-0.873 -9.375,-2.615 -2.743,-1.744 -4.902,-4.266 -6.475,-7.567 -1.574,-3.302 -2.36,-7.229 -2.36,-11.781 0,-6.686 1.674,-11.823 5.024,-15.411 3.349,-3.589 7.744,-5.383 13.186,-5.383 m -27.922,84.18 c 2.832,0 5.013,-0.83 6.542,-2.491 1.528,-1.661 2.293,-4.03 2.293,-7.106 v -29.55 c 3.461,3.28 6.991,5.792 10.589,7.536 3.596,1.742 8.048,2.614 13.354,2.614 6.114,0 11.476,-1.322 16.085,-3.968 4.608,-2.645 8.183,-6.48 10.724,-11.504 2.539,-5.024 3.81,-10.981 3.81,-17.871 0,-5.086 -0.708,-9.751 -2.125,-13.996 -1.416,-4.245 -3.473,-7.927 -6.17,-11.043 -2.698,-3.118 -5.969,-5.527 -9.813,-7.229 -3.845,-1.702 -8.083,-2.553 -12.714,-2.553 -2.832,0 -5.496,0.308 -7.992,0.923 -2.495,0.615 -4.62,1.424 -6.373,2.43 -1.754,1.004 -3.25,2.04 -4.485,3.107 -1.237,1.065 -2.867,2.665 -4.89,4.798 v -1.661 c 0,-3.158 -0.833,-5.547 -2.495,-7.167 -1.665,-1.62 -3.778,-2.43 -6.34,-2.43 -2.608,0 -4.688,0.81 -6.239,2.43 -1.551,1.62 -2.326,4.009 -2.326,7.167 V 60.88 c 0,3.404 0.752,5.977 2.259,7.721 1.506,1.743 3.608,2.614 6.306,2.614"
             style="fill:#ffffff;fill-opacity:1;fill-rule:nonzero;stroke:none"
             id="path62" /></g></g></g></g></svg>
