<?xml version="1.0" standalone="no"?>
<!DOCTYPE svg PUBLIC "-//W3C//DTD SVG 20010904//EN"
 "http://www.w3.org/TR/2001/REC-SVG-20010904/DTD/svg10.dtd">
<svg version="1.0" xmlns="http://www.w3.org/2000/svg"
 width="1201.000000pt" height="1201.000000pt" viewBox="0 0 1201.000000 1201.000000"
 preserveAspectRatio="xMidYMid meet">
<metadata>
Created by potrace 1.11, written by Peter Selinger 2001-2013
</metadata>
<g transform="translate(0.000000,1201.000000) scale(0.100000,-0.100000)"
fill="#000000" stroke="none">
<path d="M0 6210 c0 -3185 2 -5790 5 -5790 16 0 5248 3039 5292 3074 192 151
319 227 494 296 74 29 261 132 630 345 l524 304 23 63 c54 153 143 285 251
375 78 64 237 144 336 168 96 23 253 30 357 16 l87 -12 992 576 c546 316 997
579 1001 583 4 4 -365 223 -820 487 -455 263 -2701 1565 -4991 2892 -2290
1327 -4168 2413 -4172 2413 -5 0 -9 -2539 -9 -5790z m1118 2125 c121 -24 214
-75 302 -164 85 -86 128 -163 163 -295 l22 -81 0 -2235 0 -2235 -23 -89 c-75
-297 -301 -476 -602 -476 -173 0 -303 53 -422 170 -60 60 -86 95 -117 159 -83
171 -76 -43 -76 2476 l0 2240 23 80 c35 121 77 198 145 272 151 162 355 224
585 178z m4887 -98 c103 -31 164 -64 229 -127 100 -96 146 -207 146 -355 0
-87 -18 -174 -52 -245 -30 -63 -141 -171 -208 -202 -139 -66 -67 -62 -1237
-65 l-1063 -4 0 -564 0 -565 873 0 c958 0 946 0 1074 -61 121 -58 213 -175
243 -310 8 -35 11 -97 8 -162 -4 -94 -8 -112 -41 -181 -47 -98 -114 -166 -210
-212 -137 -65 -120 -64 -1079 -64 l-868 0 0 -802 c0 -801 -6 -980 -35 -1093
-73 -286 -302 -465 -595 -465 -301 0 -521 176 -602 480 l-23 85 -3 2125 c-2
1565 0 2150 8 2220 37 300 170 472 425 549 39 12 97 25 130 30 33 5 681 8
1440 7 1293 -1 1384 -2 1440 -19z"/>
<path d="M7709 4550 c-113 -20 -206 -96 -250 -206 l-24 -59 -3 -648 -3 -649
-62 58 c-140 130 -334 248 -482 293 -176 54 -473 71 -661 38 -459 -82 -790
-378 -919 -822 -40 -140 -56 -247 -62 -425 -8 -238 15 -409 83 -620 141 -437
485 -749 913 -826 113 -20 330 -20 446 1 244 43 422 136 643 334 l100 90 4
-92 c3 -74 10 -104 33 -155 55 -123 171 -194 315 -194 184 1 311 109 340 292
6 43 10 615 10 1660 0 1737 2 1674 -57 1781 -48 88 -138 141 -258 152 -33 3
-81 2 -106 -3z m-869 -1676 c366 -86 583 -467 541 -951 -29 -330 -159 -554
-386 -663 -286 -138 -647 -66 -830 167 -138 176 -203 442 -177 727 36 388 224
648 522 721 76 18 250 18 330 -1z"/>
<path d="M8863 4550 c-138 -29 -220 -110 -258 -257 -22 -83 -22 -3299 -1
-3381 42 -156 158 -244 326 -244 211 0 339 128 356 357 l7 85 121 -118 c214
-207 414 -297 709 -321 419 -33 793 117 1034 414 153 190 249 417 295 700 19
117 16 456 -5 575 -84 485 -343 816 -753 963 -299 107 -711 94 -980 -33 -106
-49 -254 -147 -349 -230 l-70 -61 -5 638 c-5 482 -9 648 -19 678 -34 105 -114
191 -203 218 -69 21 -153 28 -205 17z m1339 -1671 c96 -20 212 -83 287 -157
139 -137 209 -310 232 -569 31 -354 -69 -658 -269 -818 -138 -110 -274 -152
-462 -142 -189 10 -323 69 -451 196 -62 62 -85 94 -123 173 -144 296 -119 769
55 1025 100 148 241 250 397 288 70 16 262 19 334 4z"/>
</g>
</svg>
